# vtk DataFile Version 4.1
Generated by LIGGGHTS
ASCII
DATASET UNSTRUCTURED_GRID
POINTS 124 float
0 0 0.027 0 0.09 0.027 0.003 0.09 0.027 
0.003 0 0.027 0.006 0.09 0.027 0.006 0 0.027 
0.009 0.09 0.027 0.009 0 0.027 0.012 0.09 0.027 
0.012 0 0.027 0.015 0.09 0.027 0.015 0 0.027 
0.018 0.09 0.027 0.018 0 0.027 0.021 0.09 0.027 
0.021 0 0.027 0.024 0.09 0.027 0.024 0 0.027 
0.027 0.09 0.027 0.027 0 0.027 0.03 0.09 0.027 
0.03 0 0.027 0.033 0.09 0.027 0.033 0 0.027 
0.036 0.09 0.027 0.036 0 0.027 0.039 0.09 0.027 
0.039 0 0.027 0.042 0.09 0.027 0.042 0 0.027 
0.045 0.09 0.027 0.045 0 0.027 0.048 0.09 0.027 
0.048 0 0.027 0.051 0.09 0.027 0.051 0 0.027 
0.054 0.09 0.027 0.054 0 0.027 0.057 0.09 0.027 
0.057 0 0.027 0.06 0.09 0.027 0.06 0 0.027 
0.063 0.09 0.027 0.063 0 0.027 0.066 0.09 0.027 
0.066 0 0.027 0.069 0.09 0.027 0.069 0 0.027 
0.072 0.09 0.027 0.072 0 0.027 0.075 0.09 0.027 
0.075 0 0.027 0.078 0.09 0.027 0.078 0 0.027 
0.081 0.09 0.027 0.081 0 0.027 0.084 0.09 0.027 
0.084 0 0.027 0.087 0.09 0.027 0.087 0 0.027 
0.09 0.09 0.027 0.09 0 0.027 0 0 0.024 
0 0.09 0.024 0.003 0.09 0.024 0.003 0 0.024 
0.006 0.09 0.024 0.006 0 0.024 0.009 0.09 0.024 
0.009 0 0.024 0.012 0.09 0.024 0.012 0 0.024 
0.015 0.09 0.024 0.015 0 0.024 0.018 0.09 0.024 
0.018 0 0.024 0.021 0.09 0.024 0.021 0 0.024 
0.024 0.09 0.024 0.024 0 0.024 0.027 0.09 0.024 
0.027 0 0.024 0.03 0.09 0.024 0.03 0 0.024 
0.033 0.09 0.024 0.033 0 0.024 0.036 0.09 0.024 
0.036 0 0.024 0.039 0.09 0.024 0.039 0 0.024 
0.042 0.09 0.024 0.042 0 0.024 0.045 0.09 0.024 
0.045 0 0.024 0.048 0.09 0.024 0.048 0 0.024 
0.051 0.09 0.024 0.051 0 0.024 0.054 0.09 0.024 
0.054 0 0.024 0.057 0.09 0.024 0.057 0 0.024 
0.06 0.09 0.024 0.06 0 0.024 0.063 0.09 0.024 
0.063 0 0.024 0.066 0.09 0.024 0.066 0 0.024 
0.069 0.09 0.024 0.069 0 0.024 0.072 0.09 0.024 
0.072 0 0.024 0.075 0.09 0.024 0.075 0 0.024 
0.078 0.09 0.024 0.078 0 0.024 0.081 0.09 0.024 
0.081 0 0.024 0.084 0.09 0.024 0.084 0 0.024 
0.087 0.09 0.024 0.087 0 0.024 0.09 0.09 0.024 
0.09 0 0.024 
CELLS 30 270
8 0 1 2 3 62 63 64 65 
8 3 2 4 5 65 64 66 67 
8 5 4 6 7 67 66 68 69 
8 7 6 8 9 69 68 70 71 
8 9 8 10 11 71 70 72 73 
8 11 10 12 13 73 72 74 75 
8 13 12 14 15 75 74 76 77 
8 15 14 16 17 77 76 78 79 
8 17 16 18 19 79 78 80 81 
8 19 18 20 21 81 80 82 83 
8 21 20 22 23 83 82 84 85 
8 23 22 24 25 85 84 86 87 
8 25 24 26 27 87 86 88 89 
8 27 26 28 29 89 88 90 91 
8 29 28 30 31 91 90 92 93 
8 31 30 32 33 93 92 94 95 
8 33 32 34 35 95 94 96 97 
8 35 34 36 37 97 96 98 99 
8 37 36 38 39 99 98 100 101 
8 39 38 40 41 101 100 102 103 
8 41 40 42 43 103 102 104 105 
8 43 42 44 45 105 104 106 107 
8 45 44 46 47 107 106 108 109 
8 47 46 48 49 109 108 110 111 
8 49 48 50 51 111 110 112 113 
8 51 50 52 53 113 112 114 115 
8 53 52 54 55 115 114 116 117 
8 55 54 56 57 117 116 118 119 
8 57 56 58 59 119 118 120 121 
8 59 58 60 61 121 120 122 123 

CELL_TYPES 30
12
12
12
12
12
12
12
12
12
12
12
12
12
12
12
12
12
12
12
12
12
12
12
12
12
12
12
12
12
12

CELL_DATA 30
SCALARS face_id int
LOOKUP_TABLE default
7248
7249
7250
7251
7252
7253
7254
7255
7256
7257
7258
7259
7260
7261
7262
7263
7264
7265
7266
7267
7268
7269
7270
7271
7272
7273
7274
7275
7276
7277
SCALARS cell_id int
LOOKUP_TABLE default
7248
7249
7250
7251
7252
7253
7254
7255
7256
7257
7258
7259
7260
7261
7262
7263
7264
7265
7266
7267
7268
7269
7270
7271
7272
7273
7274
7275
7276
7277
